<svg xmlns="http://www.w3.org/2000/svg" fill="none" viewBox="0 0 120 16.025"><g fill="#000"><path d="M0 .396h6.038c4.567 0 8.32 3.33 8.32 7.6s-3.783 7.595-8.32 7.595H0zM4.254 12.26h.958c2.545 0 4.712-1.289 4.712-4.251 0-2.718-1.928-4.252-4.666-4.252H4.254zM19.72 3.745V6.29h4.803v3.34H19.72v2.619h5.063v3.343h-9.32V.396h9.32v3.35zM33.404 9.63 37.38.396h4.629L35.01 15.591h-3.3L24.83.396h4.62zM51.19 4.308a4.66 4.66 0 0 0-2.823-1.001c-.78 0-1.824.42-1.824 1.266 0 .891 1.152 1.228 1.891 1.451l1.088.3c2.282.624 4.039 1.695 4.039 4.139 0 1.514-.391 3.065-1.696 4.096s-2.997 1.43-4.65 1.43a10.66 10.66 0 0 1-5.753-1.73l1.821-3.19c1.072.87 2.325 1.567 3.785 1.567 1 0 2.063-.457 2.063-1.525s-1.677-1.492-2.588-1.735c-2.678-.704-4.433-1.352-4.433-4.287 0-3.087 2.376-5.1 5.652-5.1a11.9 11.9 0 0 1 5.127 1.252zM58.969.396h-4.262v15.192h4.262zM69.87 4.309a4.68 4.68 0 0 0-2.82-1.001c-.787 0-1.826.419-1.826 1.266 0 .89 1.151 1.227 1.888 1.45l1.087.302c2.283.623 4.04 1.693 4.04 4.137 0 1.515-.394 3.065-1.698 4.097-1.305 1.032-2.992 1.44-4.648 1.44a10.67 10.67 0 0 1-5.753-1.73l1.824-3.189c1.071.87 2.325 1.567 3.78 1.567.998 0 2.059-.458 2.059-1.525 0-1.068-1.674-1.493-2.582-1.735-2.679-.704-4.43-1.352-4.43-4.287C60.804 2.014 63.16 0 66.429 0a11.9 11.9 0 0 1 5.127 1.252zm10.034 11.282h-4.256V3.745H72.13V.396h11.293v3.35h-3.52zm8.451-11.846V6.29h4.8v3.34h-4.8v2.619h5.063v3.343h-9.316V.396h9.316v3.35zm20.441 11.846h-5.301l-4.018-5.843h-.04v5.843h-4.256V.396h6.361c3.239 0 5.695 1.443 5.695 4.69 0 2.1-1.267 3.91-3.587 4.293zm-9.362-8.378h.41c1.393 0 2.947-.243 2.947-1.9 0-1.659-1.565-1.89-2.947-1.89h-.41z"/><path d="M117.63 4.308a4.65 4.65 0 0 0-2.821-1.001c-.787 0-1.821.42-1.821 1.266 0 .891 1.149 1.228 1.875 1.451l1.085.3c2.282.624 4.042 1.695 4.042 4.139 0 1.514-.386 3.065-1.698 4.096-1.313 1.032-2.995 1.43-4.645 1.43a10.7 10.7 0 0 1-5.756-1.73l1.821-3.19c1.071.87 2.328 1.567 3.782 1.567.999 0 2.065-.457 2.065-1.525s-1.671-1.492-2.582-1.735c-2.678-.704-4.433-1.352-4.433-4.287 0-3.087 2.365-5.1 5.647-5.1 1.778.027 3.528.454 5.129 1.252z"/></g></svg>